<svg xmlns="http://www.w3.org/2000/svg" width="140" height="52" viewBox="0 0 140 52" fill="none"><g clip-path="url(#clip0)"><path d="M117.6 24.2C117.6 24.2 111.3 7.5 130.8 1C130.8 1 134.4 17.3 118.7 24.6C118.7 24.6 126.8 16.7 127.1 8.4C127.1 8.4 123.6 17.7 117.6 24.2Z" fill="#8CCA36"></path><path d="M119.1 26.6C119.1 26.6 128.6 36 138.9 24.6C138.9 24.6 128.9 17.2 119.2 25.7C119.2 25.7 124.6 23.2 130.2 25.3C130.3 25.3 128.1 24.2 119.1 26.6Z" fill="#F56800"></path><path d="M11.9073 23.2315C14.064 23.2315 16.0137 23.7325 17.7564 24.7346C19.521 25.7367 20.9043 27.1418 21.9064 28.9499C22.9302 30.7362 23.4422 32.7622 23.4422 35.0278C23.4422 37.2934 22.9302 39.3302 21.9064 41.1383C20.9043 42.9464 19.521 44.3515 17.7564 45.3536C16.0137 46.3557 14.064 46.8567 11.9073 46.8567C9.75063 46.8567 7.79003 46.3557 6.02549 45.3536C4.28273 44.3515 2.89942 42.9464 1.87555 41.1383C0.873464 39.3302 0.372422 37.2934 0.372422 35.0278C0.372422 32.7622 0.873464 30.7362 1.87555 28.9499C2.89942 27.1418 4.28273 25.7367 6.02549 24.7346C7.79003 23.7325 9.75063 23.2315 11.9073 23.2315ZM11.9073 27.4795C10.5567 27.4795 9.36941 27.7844 8.34554 28.3944C7.32167 29.0044 6.51564 29.8866 5.92746 31.0412C5.36106 32.174 5.07787 33.5029 5.07787 35.0278C5.07787 36.5527 5.36106 37.8924 5.92746 39.047C6.51564 40.1798 7.32167 41.0512 8.34554 41.6611C9.36941 42.2711 10.5567 42.5761 11.9073 42.5761C13.2579 42.5761 14.4452 42.2711 15.4691 41.6611C16.4929 41.0512 17.2881 40.1798 17.8545 39.047C18.4426 37.8924 18.7367 36.5527 18.7367 35.0278C18.7367 33.5029 18.4426 32.174 17.8545 31.0412C17.2881 29.8866 16.4929 29.0044 15.4691 28.3944C14.4452 27.7844 13.2579 27.4795 11.9073 27.4795ZM37.7232 28.2964C39.2481 28.2964 40.6205 28.6667 41.8404 29.4074C43.0604 30.148 44.008 31.2264 44.6833 32.6424C45.3804 34.0366 45.729 35.6813 45.729 37.5766C45.729 39.4718 45.3804 41.1274 44.6833 42.5434C44.008 43.9376 43.0604 45.0051 41.8404 45.7457C40.6205 46.4864 39.2481 46.8567 37.7232 46.8567C36.1983 46.8567 34.8912 46.4973 33.802 45.7784C32.7345 45.0377 31.9721 44.0574 31.5146 42.8375V55.2546H26.9072V28.5251H31.5146V32.2829C31.9721 31.063 32.7345 30.0936 33.802 29.3747C34.8912 28.6558 36.1983 28.2964 37.7232 28.2964ZM36.2854 32.3156C34.8912 32.3156 33.7366 32.7949 32.8217 33.7534C31.9285 34.6901 31.4819 35.9645 31.4819 37.5766C31.4819 39.1668 31.9285 40.4412 32.8217 41.3997C33.7366 42.3365 34.8912 42.8048 36.2854 42.8048C37.7232 42.8048 38.8777 42.3474 39.7491 41.4324C40.6205 40.4957 41.0562 39.2104 41.0562 37.5766C41.0562 35.9427 40.6205 34.6574 39.7491 33.7207C38.8777 32.784 37.7232 32.3156 36.2854 32.3156ZM58.6618 42.6741V46.628H56.2437C54.2178 46.628 52.6602 46.1378 51.5709 45.1575C50.5035 44.1772 49.9698 42.5434 49.9698 40.256V32.4136H47.4537V28.5251H49.9698V24.0484H54.5772V28.5251H58.6291V32.4136H54.5772V40.3214C54.5772 41.1928 54.7515 41.8027 55.1 42.1513C55.4486 42.4998 56.0368 42.6741 56.8646 42.6741H58.6618ZM61.4544 23.3295C61.4544 22.5888 61.7158 21.9898 62.2386 21.5323C62.7614 21.053 63.4476 20.8134 64.2972 20.8134C65.1468 20.8134 65.833 21.053 66.3559 21.5323C66.8787 21.9898 67.1401 22.5888 67.1401 23.3295C67.1401 24.0484 66.8787 24.6475 66.3559 25.1267C65.833 25.5842 65.1468 25.8129 64.2972 25.8129C63.4476 25.8129 62.7614 25.5842 62.2386 25.1267C61.7158 24.6475 61.4544 24.0484 61.4544 23.3295ZM66.5846 28.5251V46.628H61.9772V28.5251H66.5846ZM78.6278 42.0206L83.2025 28.5251H88.104L81.4053 46.628H75.7849L69.0862 28.5251H74.0203L78.6278 42.0206ZM90.1422 23.3295C90.1422 22.5888 90.4036 21.9898 90.9265 21.5323C91.4493 21.053 92.1355 20.8134 92.9851 20.8134C93.8347 20.8134 94.5209 21.053 95.0437 21.5323C95.5665 21.9898 95.828 22.5888 95.828 23.3295C95.828 24.0484 95.5665 24.6475 95.0437 25.1267C94.5209 25.5842 93.8347 25.8129 92.9851 25.8129C92.1355 25.8129 91.4493 25.5842 90.9265 25.1267C90.4036 24.6475 90.1422 24.0484 90.1422 23.3295ZM95.2725 28.5251V46.628H90.665V28.5251H95.2725ZM109.113 42.6741V46.628H106.695C104.669 46.628 103.111 46.1378 102.022 45.1575C100.955 44.1772 100.421 42.5434 100.421 40.256V32.4136H97.9047V28.5251H100.421V24.0484H105.028V28.5251H109.08V32.4136H105.028V40.3214C105.028 41.1928 105.203 41.8027 105.551 42.1513C105.9 42.4998 106.488 42.6741 107.316 42.6741H109.113Z" fill="#27313F"></path><path d="M30.6228 6.97164V12.2502H29.6425V9.98796H26.9127V12.2502H25.9324V6.97164H26.9127V9.15093H29.6425V6.97164H30.6228ZM38.0802 11.4283V12.2502H34.1213V6.97164H37.9746V7.79359H35.1016V9.16601H37.6504V9.97288H35.1016V11.4283H38.0802ZM44.6806 11.0286H42.0413L41.521 12.2502H40.5105L42.8859 6.97164H43.8511L46.234 12.2502H45.2084L44.6806 11.0286ZM44.3563 10.2594L43.3609 7.95194L42.3731 10.2594H44.3563ZM48.9893 6.97164H49.9696V11.4207H52.7296V12.2502H48.9893V6.97164ZM56.6583 7.80113H54.9088V6.97164H59.3881V7.80113H57.6386V12.2502H56.6583V7.80113ZM66.8982 6.97164V12.2502H65.9179V9.98796H63.1881V12.2502H62.2078V6.97164H63.1881V9.15093H65.9179V6.97164H66.8982ZM72.674 10.3876V12.2502H71.6937V10.4027L69.6199 6.97164H70.6681L72.214 9.54305L73.7749 6.97164H74.7401L72.674 10.3876ZM80.5305 7.79359V9.39978H83.0793V10.2293H80.5305V12.2502H79.5502V6.97164H83.4035V7.79359H80.5305ZM88.9014 12.3256C88.3635 12.3256 87.8784 12.21 87.446 11.9787C87.0137 11.7425 86.6744 11.4182 86.428 11.006C86.1817 10.5887 86.0585 10.1237 86.0585 9.61092C86.0585 9.09814 86.1817 8.63564 86.428 8.22341C86.6744 7.80615 87.0137 7.4819 87.446 7.25065C87.8784 7.01437 88.3635 6.89623 88.9014 6.89623C89.4393 6.89623 89.9245 7.01437 90.3568 7.25065C90.7891 7.4819 91.1285 7.80364 91.3748 8.21587C91.6211 8.6281 91.7443 9.09312 91.7443 9.61092C91.7443 10.1287 91.6211 10.5937 91.3748 11.006C91.1285 11.4182 90.7891 11.7425 90.3568 11.9787C89.9245 12.21 89.4393 12.3256 88.9014 12.3256ZM88.9014 11.466C89.2533 11.466 89.57 11.388 89.8516 11.2322C90.1331 11.0713 90.3543 10.8501 90.5151 10.5686C90.676 10.282 90.7565 9.96282 90.7565 9.61092C90.7565 9.25901 90.676 8.9423 90.5151 8.66078C90.3543 8.37423 90.1331 8.15303 89.8516 7.99719C89.57 7.83632 89.2533 7.75588 88.9014 7.75588C88.5495 7.75588 88.2328 7.83632 87.9513 7.99719C87.6698 8.15303 87.4486 8.37423 87.2877 8.66078C87.1268 8.9423 87.0464 9.25901 87.0464 9.61092C87.0464 9.96282 87.1268 10.282 87.2877 10.5686C87.4486 10.8501 87.6698 11.0713 87.9513 11.2322C88.2328 11.388 88.5495 11.466 88.9014 11.466ZM97.3333 12.3256C96.7954 12.3256 96.3102 12.21 95.8779 11.9787C95.4456 11.7425 95.1062 11.4182 94.8599 11.006C94.6136 10.5887 94.4904 10.1237 94.4904 9.61092C94.4904 9.09814 94.6136 8.63564 94.8599 8.22341C95.1062 7.80615 95.4456 7.4819 95.8779 7.25065C96.3102 7.01437 96.7954 6.89623 97.3333 6.89623C97.8712 6.89623 98.3563 7.01437 98.7886 7.25065C99.221 7.4819 99.5603 7.80364 99.8067 8.21587C100.053 8.6281 100.176 9.09312 100.176 9.61092C100.176 10.1287 100.053 10.5937 99.8067 11.006C99.5603 11.4182 99.221 11.7425 98.7886 11.9787C98.3563 12.21 97.8712 12.3256 97.3333 12.3256ZM97.3333 11.466C97.6852 11.466 98.0019 11.388 98.2834 11.2322C98.5649 11.0713 98.7861 10.8501 98.947 10.5686C99.1079 10.282 99.1883 9.96282 99.1883 9.61092C99.1883 9.25901 99.1079 8.9423 98.947 8.66078C98.7861 8.37423 98.5649 8.15303 98.2834 7.99719C98.0019 7.83632 97.6852 7.75588 97.3333 7.75588C96.9814 7.75588 96.6647 7.83632 96.3831 7.99719C96.1016 8.15303 95.8804 8.37423 95.7195 8.66078C95.5587 8.9423 95.4782 9.25901 95.4782 9.61092C95.4782 9.96282 95.5587 10.282 95.7195 10.5686C95.8804 10.8501 96.1016 11.0713 96.3831 11.2322C96.6647 11.388 96.9814 11.466 97.3333 11.466ZM103.299 6.97164H105.607C106.17 6.97164 106.67 7.08224 107.107 7.30343C107.545 7.5196 107.884 7.82878 108.125 8.23095C108.367 8.6281 108.487 9.08809 108.487 9.61092C108.487 10.1337 108.367 10.5962 108.125 10.9984C107.884 11.3956 107.545 11.7047 107.107 11.9259C106.67 12.1421 106.17 12.2502 105.607 12.2502H103.299V6.97164ZM105.562 11.4207C105.949 11.4207 106.288 11.3478 106.58 11.202C106.876 11.0512 107.102 10.8401 107.258 10.5686C107.419 10.2921 107.5 9.97288 107.5 9.61092C107.5 9.24896 107.419 8.93225 107.258 8.66078C107.102 8.38428 106.876 8.17314 106.58 8.02735C106.288 7.87653 105.949 7.80113 105.562 7.80113H104.28V11.4207H105.562Z" fill="#27313F"></path></g><defs><clipPath id="clip0"><rect width="140" height="52" fill="white"></rect></clipPath></defs></svg>