<svg xmlns="http://www.w3.org/2000/svg" width="140" height="52" viewBox="0 0 140 52" fill="none"><g clip-path="url(#clip0)"><path d="M117.6 24.2C117.6 24.2 111.3 7.5 130.8 1C130.8 1 134.4 17.3 118.7 24.6C118.7 24.6 126.8 16.7 127.1 8.4C127.1 8.4 123.6 17.7 117.6 24.2Z" fill="#8CCA36"></path><path d="M119.1 26.6C119.1 26.6 128.6 36 138.9 24.6C138.9 24.6 128.9 17.2 119.2 25.7C119.2 25.7 124.6 23.2 130.2 25.3C130.3 25.3 128.1 24.2 119.1 26.6Z" fill="#F56800"></path><path d="M11.9073 23.2315C14.064 23.2315 16.0137 23.7325 17.7564 24.7346C19.521 25.7367 20.9043 27.1418 21.9064 28.9499C22.9302 30.7362 23.4422 32.7622 23.4422 35.0278C23.4422 37.2933 22.9302 39.3302 21.9064 41.1383C20.9043 42.9464 19.521 44.3515 17.7564 45.3536C16.0137 46.3557 14.064 46.8567 11.9073 46.8567C9.75063 46.8567 7.79003 46.3557 6.02549 45.3536C4.28273 44.3515 2.89942 42.9464 1.87555 41.1383C0.873464 39.3302 0.372422 37.2933 0.372422 35.0278C0.372422 32.7622 0.873464 30.7362 1.87555 28.9499C2.89942 27.1418 4.28273 25.7367 6.02549 24.7346C7.79003 23.7325 9.75063 23.2315 11.9073 23.2315ZM11.9073 27.4794C10.5567 27.4794 9.36941 27.7844 8.34554 28.3944C7.32167 29.0044 6.51564 29.8866 5.92746 31.0412C5.36106 32.174 5.07787 33.5028 5.07787 35.0278C5.07787 36.5527 5.36106 37.8924 5.92746 39.047C6.51564 40.1798 7.32167 41.0512 8.34554 41.6611C9.36941 42.2711 10.5567 42.5761 11.9073 42.5761C13.2579 42.5761 14.4452 42.2711 15.4691 41.6611C16.4929 41.0512 17.2881 40.1798 17.8545 39.047C18.4426 37.8924 18.7367 36.5527 18.7367 35.0278C18.7367 33.5028 18.4426 32.174 17.8545 31.0412C17.2881 29.8866 16.4929 29.0044 15.4691 28.3944C14.4452 27.7844 13.2579 27.4794 11.9073 27.4794ZM37.7232 28.2964C39.2481 28.2964 40.6205 28.6667 41.8404 29.4074C43.0604 30.148 44.008 31.2264 44.6833 32.6424C45.3804 34.0366 45.729 35.6813 45.729 37.5765C45.729 39.4718 45.3804 41.1274 44.6833 42.5434C44.008 43.9376 43.0604 45.005 41.8404 45.7457C40.6205 46.4864 39.2481 46.8567 37.7232 46.8567C36.1983 46.8567 34.8912 46.4973 33.802 45.7784C32.7345 45.0377 31.9721 44.0574 31.5146 42.8375V55.2546H26.9072V28.5251H31.5146V32.2829C31.9721 31.063 32.7345 30.0936 33.802 29.3747C34.8912 28.6558 36.1983 28.2964 37.7232 28.2964ZM36.2854 32.3156C34.8912 32.3156 33.7366 32.7949 32.8217 33.7534C31.9285 34.6901 31.4819 35.9645 31.4819 37.5765C31.4819 39.1668 31.9285 40.4412 32.8217 41.3997C33.7366 42.3365 34.8912 42.8048 36.2854 42.8048C37.7232 42.8048 38.8777 42.3473 39.7491 41.4324C40.6205 40.4957 41.0562 39.2104 41.0562 37.5765C41.0562 35.9427 40.6205 34.6574 39.7491 33.7207C38.8777 32.784 37.7232 32.3156 36.2854 32.3156ZM58.6618 42.6741V46.628H56.2437C54.2178 46.628 52.6602 46.1378 51.5709 45.1575C50.5035 44.1772 49.9698 42.5434 49.9698 40.256V32.4136H47.4537V28.5251H49.9698V24.0484H54.5772V28.5251H58.6291V32.4136H54.5772V40.3214C54.5772 41.1928 54.7515 41.8027 55.1 42.1513C55.4486 42.4998 56.0368 42.6741 56.8646 42.6741H58.6618ZM61.4544 23.3295C61.4544 22.5888 61.7158 21.9898 62.2386 21.5323C62.7614 21.053 63.4476 20.8134 64.2972 20.8134C65.1468 20.8134 65.833 21.053 66.3559 21.5323C66.8787 21.9898 67.1401 22.5888 67.1401 23.3295C67.1401 24.0484 66.8787 24.6475 66.3559 25.1267C65.833 25.5842 65.1468 25.8129 64.2972 25.8129C63.4476 25.8129 62.7614 25.5842 62.2386 25.1267C61.7158 24.6475 61.4544 24.0484 61.4544 23.3295ZM66.5846 28.5251V46.628H61.9772V28.5251H66.5846ZM78.6278 42.0206L83.2025 28.5251H88.104L81.4053 46.628H75.7849L69.0862 28.5251H74.0203L78.6278 42.0206ZM90.1422 23.3295C90.1422 22.5888 90.4036 21.9898 90.9265 21.5323C91.4493 21.053 92.1355 20.8134 92.9851 20.8134C93.8347 20.8134 94.5209 21.053 95.0437 21.5323C95.5665 21.9898 95.828 22.5888 95.828 23.3295C95.828 24.0484 95.5665 24.6475 95.0437 25.1267C94.5209 25.5842 93.8347 25.8129 92.9851 25.8129C92.1355 25.8129 91.4493 25.5842 90.9265 25.1267C90.4036 24.6475 90.1422 24.0484 90.1422 23.3295ZM95.2725 28.5251V46.628H90.665V28.5251H95.2725ZM109.113 42.6741V46.628H106.695C104.669 46.628 103.111 46.1378 102.022 45.1575C100.955 44.1772 100.421 42.5434 100.421 40.256V32.4136H97.9047V28.5251H100.421V24.0484H105.028V28.5251H109.08V32.4136H105.028V40.3214C105.028 41.1928 105.203 41.8027 105.551 42.1513C105.9 42.4998 106.488 42.6741 107.316 42.6741H109.113Z" fill="white"></path><path d="M30.6228 6.97165V12.2502H29.6425V9.98797H26.9127V12.2502H25.9324V6.97165H26.9127V9.15094H29.6425V6.97165H30.6228ZM38.0802 11.4283V12.2502H34.1212V6.97165H37.9746V7.7936H35.1015V9.16603H37.6503V9.97289H35.1015V11.4283H38.0802ZM44.6805 11.0286H42.0413L41.5209 12.2502H40.5105L42.8858 6.97165H43.8511L46.2339 12.2502H45.2084L44.6805 11.0286ZM44.3563 10.2594L43.3609 7.95196L42.3731 10.2594H44.3563ZM48.9893 6.97165H49.9696V11.4207H52.7295V12.2502H48.9893V6.97165ZM56.6583 7.80114H54.9088V6.97165H59.388V7.80114H57.6386V12.2502H56.6583V7.80114ZM66.8982 6.97165V12.2502H65.9179V9.98797H63.1881V12.2502H62.2078V6.97165H63.1881V9.15094H65.9179V6.97165H66.8982ZM72.6739 10.3876V12.2502H71.6936V10.4027L69.6199 6.97165H70.6681L72.214 9.54307L73.7749 6.97165H74.7401L72.6739 10.3876ZM80.5304 7.7936V9.39979H83.0792V10.2293H80.5304V12.2502H79.5501V6.97165H83.4035V7.7936H80.5304ZM88.9014 12.3256C88.3635 12.3256 87.8783 12.21 87.446 11.9787C87.0137 11.7425 86.6743 11.4182 86.428 11.006C86.1817 10.5887 86.0585 10.1237 86.0585 9.61093C86.0585 9.09816 86.1817 8.63566 86.428 8.22343C86.6743 7.80617 87.0137 7.48191 87.446 7.25066C87.8783 7.01438 88.3635 6.89625 88.9014 6.89625C89.4393 6.89625 89.9244 7.01438 90.3568 7.25066C90.7891 7.48191 91.1284 7.80365 91.3748 8.21589C91.6211 8.62812 91.7443 9.09313 91.7443 9.61093C91.7443 10.1287 91.6211 10.5938 91.3748 11.006C91.1284 11.4182 90.7891 11.7425 90.3568 11.9787C89.9244 12.21 89.4393 12.3256 88.9014 12.3256ZM88.9014 11.466C89.2533 11.466 89.57 11.388 89.8515 11.2322C90.133 11.0713 90.3542 10.8501 90.5151 10.5686C90.676 10.2821 90.7564 9.96284 90.7564 9.61093C90.7564 9.25903 90.676 8.94232 90.5151 8.66079C90.3542 8.37424 90.133 8.15305 89.8515 7.9972C89.57 7.83633 89.2533 7.7559 88.9014 7.7559C88.5495 7.7559 88.2328 7.83633 87.9512 7.9972C87.6697 8.15305 87.4485 8.37424 87.2877 8.66079C87.1268 8.94232 87.0463 9.25903 87.0463 9.61093C87.0463 9.96284 87.1268 10.2821 87.2877 10.5686C87.4485 10.8501 87.6697 11.0713 87.9512 11.2322C88.2328 11.388 88.5495 11.466 88.9014 11.466ZM97.3332 12.3256C96.7953 12.3256 96.3102 12.21 95.8779 11.9787C95.4455 11.7425 95.1062 11.4182 94.8599 11.006C94.6135 10.5887 94.4904 10.1237 94.4904 9.61093C94.4904 9.09816 94.6135 8.63566 94.8599 8.22343C95.1062 7.80617 95.4455 7.48191 95.8779 7.25066C96.3102 7.01438 96.7953 6.89625 97.3332 6.89625C97.8711 6.89625 98.3563 7.01438 98.7886 7.25066C99.221 7.48191 99.5603 7.80365 99.8066 8.21589C100.053 8.62812 100.176 9.09313 100.176 9.61093C100.176 10.1287 100.053 10.5938 99.8066 11.006C99.5603 11.4182 99.221 11.7425 98.7886 11.9787C98.3563 12.21 97.8711 12.3256 97.3332 12.3256ZM97.3332 11.466C97.6851 11.466 98.0019 11.388 98.2834 11.2322C98.5649 11.0713 98.7861 10.8501 98.947 10.5686C99.1078 10.2821 99.1883 9.96284 99.1883 9.61093C99.1883 9.25903 99.1078 8.94232 98.947 8.66079C98.7861 8.37424 98.5649 8.15305 98.2834 7.9972C98.0019 7.83633 97.6851 7.7559 97.3332 7.7559C96.9813 7.7559 96.6646 7.83633 96.3831 7.9972C96.1016 8.15305 95.8804 8.37424 95.7195 8.66079C95.5586 8.94232 95.4782 9.25903 95.4782 9.61093C95.4782 9.96284 95.5586 10.2821 95.7195 10.5686C95.8804 10.8501 96.1016 11.0713 96.3831 11.2322C96.6646 11.388 96.9813 11.466 97.3332 11.466ZM103.299 6.97165H105.607C106.17 6.97165 106.67 7.08225 107.107 7.30345C107.545 7.51962 107.884 7.82879 108.125 8.23097C108.367 8.62812 108.487 9.0881 108.487 9.61093C108.487 10.1338 108.367 10.5963 108.125 10.9984C107.884 11.3956 107.545 11.7048 107.107 11.926C106.67 12.1421 106.17 12.2502 105.607 12.2502H103.299V6.97165ZM105.561 11.4207C105.949 11.4207 106.288 11.3478 106.579 11.202C106.876 11.0512 107.102 10.8401 107.258 10.5686C107.419 10.2921 107.499 9.97289 107.499 9.61093C107.499 9.24898 107.419 8.93226 107.258 8.66079C107.102 8.3843 106.876 8.17315 106.579 8.02737C106.288 7.87655 105.949 7.80114 105.561 7.80114H104.28V11.4207H105.561Z" fill="white"></path></g><defs><clipPath id="clip0"><rect width="140" height="52" fill="white"></rect></clipPath></defs></svg>